<svg width="59" height="58" viewBox="0 0 59 58" fill="none" xmlns="http://www.w3.org/2000/svg">
<path fill-rule="evenodd" clip-rule="evenodd" d="M29.9258 58.0001C45.942 58.0001 58.9258 45.0163 58.9258 29.0001C58.9258 12.9838 45.942 0 29.9258 0C13.9095 0 0.925781 12.9838 0.925781 29.0001C0.925781 45.0163 13.9095 58.0001 29.9258 58.0001ZM25.9482 29.9264V44.0508H31.3253V29.9264H36.6037L36.8438 24.841H31.3253V21.1276C31.3253 19.7255 31.619 18.8807 33.4522 18.8807C35.1459 18.8807 36.6981 18.8958 36.6981 18.8958L36.818 14.1468C36.818 14.1468 35.2961 13.9495 33.2379 13.9495C28.1544 13.9495 25.9482 17.084 25.9482 20.4973V24.841H22.2135V29.9264H25.9482Z" fill="#F3F3F3"/>
</svg>
