<svg width="79" height="79" viewBox="0 0 79 79" fill="none" xmlns="http://www.w3.org/2000/svg">
<circle cx="39.5" cy="39.5" r="39.5" fill="#F3F3F3"/>
<path d="M46.4 39C46.4 40.2658 46.0246 41.5032 45.3214 42.5556C44.6182 43.6081 43.6186 44.4284 42.4492 44.9128C41.2797 45.3972 39.9929 45.524 38.7514 45.277C37.5099 45.0301 36.3696 44.4205 35.4745 43.5255C34.5795 42.6304 33.9699 41.4901 33.723 40.2486C33.476 39.0071 33.6028 37.7203 34.0872 36.5508C34.5716 35.3814 35.3919 34.3818 36.4444 33.6786C37.4968 32.9754 38.7342 32.6 40 32.6C41.6968 32.602 43.3235 33.2769 44.5233 34.4767C45.7231 35.6765 46.398 37.3032 46.4 39ZM60 30.2V47.8C59.9966 50.7694 58.8155 53.6162 56.7159 55.7159C54.6162 57.8155 51.7694 58.9966 48.8 59H31.2C28.2306 58.9966 25.3838 57.8155 23.2841 55.7159C21.1845 53.6162 20.0034 50.7694 20 47.8V30.2C20.0034 27.2306 21.1845 24.3838 23.2841 22.2841C25.3838 20.1845 28.2306 19.0034 31.2 19H48.8C51.7694 19.0034 54.6162 20.1845 56.7159 22.2841C58.8155 24.3838 59.9966 27.2306 60 30.2ZM49.6 39C49.6 37.1013 49.037 35.2452 47.9821 33.6665C46.9272 32.0878 45.4279 30.8574 43.6738 30.1308C41.9196 29.4042 39.9894 29.214 38.1271 29.5845C36.2649 29.9549 34.5544 30.8692 33.2118 32.2118C31.8692 33.5544 30.9549 35.2649 30.5845 37.1271C30.214 38.9894 30.4042 40.9196 31.1308 42.6738C31.8574 44.4279 33.0878 45.9272 34.6665 46.9821C36.2452 48.037 38.1013 48.6 40 48.6C42.5452 48.5971 44.9853 47.5848 46.7851 45.7851C48.5848 43.9853 49.5971 41.5452 49.6 39ZM52.8 28.6C52.8 28.1253 52.6592 27.6613 52.3955 27.2666C52.1318 26.872 51.757 26.5643 51.3184 26.3827C50.8799 26.201 50.3973 26.1535 49.9318 26.2461C49.4662 26.3387 49.0386 26.5673 48.7029 26.9029C48.3673 27.2386 48.1387 27.6662 48.0461 28.1318C47.9535 28.5973 48.001 29.0799 48.1827 29.5184C48.3643 29.957 48.672 30.3318 49.0666 30.5955C49.4613 30.8592 49.9253 31 50.4 31C51.0365 31 51.647 30.7471 52.0971 30.2971C52.5471 29.847 52.8 29.2365 52.8 28.6Z" fill="black"/>
</svg>
