<svg width="58" height="58" viewBox="0 0 58 58" fill="none" xmlns="http://www.w3.org/2000/svg">
<path fill-rule="evenodd" clip-rule="evenodd" d="M29.0004 58.0007C45.0168 58.0007 58.0007 45.0168 58.0007 29.0004C58.0007 12.9839 45.0168 0 29.0004 0C12.9839 0 0 12.9839 0 29.0004C0 45.0168 12.9839 58.0007 29.0004 58.0007ZM33.2755 31.2439C33.7918 30.4712 34.0674 29.5627 34.0674 28.6334C34.0659 27.3876 33.5704 26.1933 32.6895 25.3124C31.8086 24.4316 30.6143 23.936 29.3686 23.9346C28.4392 23.9346 27.5308 24.2102 26.7581 24.7265C25.9853 25.2428 25.3831 25.9767 25.0275 26.8352C24.6718 27.6938 24.5788 28.6386 24.7601 29.5501C24.9414 30.4616 25.3889 31.2988 26.046 31.9559C26.7032 32.6131 27.5404 33.0606 28.4519 33.2419C29.3634 33.4232 30.3081 33.3302 31.1667 32.9745C32.0253 32.6189 32.7592 32.0166 33.2755 31.2439ZM44.0523 35.0942V22.1726C44.0498 19.9925 43.1827 17.9024 41.6411 16.3608C40.0996 14.8193 38.0095 13.9521 35.8294 13.9497H22.9077C20.7276 13.9521 18.6376 14.8193 17.096 16.3608C15.5545 17.9024 14.6873 19.9925 14.6848 22.1726V35.0942C14.6873 37.2743 15.5545 39.3644 17.096 40.906C18.6376 42.4475 20.7276 43.3146 22.9077 43.3171H35.8294C38.0095 43.3146 40.0996 42.4475 41.6411 40.906C43.1827 39.3644 44.0498 37.2743 44.0523 35.0942ZM35.2289 24.7176C36.0034 25.8767 36.4168 27.2394 36.4168 28.6334C36.4147 30.502 35.6714 32.2936 34.3501 33.6149C33.0287 34.9362 31.2372 35.6795 29.3686 35.6816C27.9746 35.6816 26.6119 35.2682 25.4528 34.4938C24.2937 33.7193 23.3904 32.6185 22.8569 31.3306C22.3234 30.0427 22.1839 28.6256 22.4558 27.2584C22.7278 25.8911 23.399 24.6353 24.3847 23.6496C25.3705 22.6639 26.6263 21.9926 27.9935 21.7206C29.3608 21.4487 30.7779 21.5883 32.0658 22.1217C33.3537 22.6552 34.4545 23.5586 35.2289 24.7176ZM38.4692 20.0189C38.6628 20.3087 38.7662 20.6494 38.7662 20.9979C38.7662 21.4652 38.5805 21.9134 38.2501 22.2438C37.9196 22.5743 37.4714 22.7599 37.0041 22.7599C36.6556 22.7599 36.3149 22.6566 36.0252 22.4629C35.7354 22.2693 35.5096 21.9941 35.3762 21.6722C35.2428 21.3502 35.2079 20.9959 35.2759 20.6541C35.3439 20.3123 35.5117 19.9983 35.7582 19.7519C36.0046 19.5055 36.3186 19.3377 36.6604 19.2697C37.0022 19.2017 37.3564 19.2366 37.6784 19.3699C38.0004 19.5033 38.2756 19.7291 38.4692 20.0189Z" fill="#F3F3F3"/>
</svg>
