<svg width="79" height="79" viewBox="0 0 79 79" fill="none" xmlns="http://www.w3.org/2000/svg">
<circle cx="39.5" cy="39.5" r="39.5" fill="#F3F3F3"/>
<path d="M59.2045 29.1489C58.9662 28.299 58.5021 27.5295 57.8614 26.9222C57.2027 26.2963 56.3953 25.8485 55.5154 25.6212C52.2227 24.7533 39.0306 24.7533 39.0306 24.7533C33.531 24.6908 28.0327 24.966 22.5668 25.5774C21.6869 25.8215 20.881 26.2792 20.2208 26.9099C19.5721 27.5341 19.1022 28.3038 18.8567 29.1472C18.2671 32.3238 17.9806 35.5492 18.0011 38.78C17.98 42.0079 18.2658 45.2323 18.8567 48.4128C19.0969 49.2527 19.5651 50.0189 20.2155 50.6378C20.866 51.2567 21.6761 51.7038 22.5668 51.9405C25.9034 52.8067 39.0306 52.8067 39.0306 52.8067C44.5372 52.8693 50.0425 52.5941 55.5154 51.9826C56.3953 51.7553 57.2027 51.3076 57.8614 50.6816C58.5101 50.0627 58.9713 49.293 59.2027 48.4549C59.8078 45.2795 60.102 42.0528 60.0811 38.8203C60.1266 35.5742 59.8328 32.3322 59.2045 29.1472V29.1489ZM34.8366 44.7834V32.7783L45.8125 38.7818L34.8366 44.7834Z" fill="#E22020"/>
</svg>
