<svg width="59" height="58" viewBox="0 0 59 58" fill="none" xmlns="http://www.w3.org/2000/svg">
<path fill-rule="evenodd" clip-rule="evenodd" d="M29.3906 58C45.4069 58 58.3906 45.0163 58.3906 29C58.3906 12.9837 45.4069 0 29.3906 0C13.3744 0 0.390625 12.9837 0.390625 29C0.390625 45.0163 13.3744 58 29.3906 58ZM42.8698 19.7655C43.3401 20.2114 43.6809 20.7763 43.8558 21.4003V21.3991C44.3172 23.7374 44.5329 26.1176 44.4995 28.5009C44.5148 30.874 44.2988 33.2431 43.8545 35.5743C43.6846 36.1897 43.3461 36.7548 42.8698 37.2092C42.3862 37.6687 41.7934 37.9974 41.1474 38.1643C37.1293 38.6133 33.0875 38.8153 29.0446 38.7693C29.0446 38.7693 19.4069 38.7693 16.9573 38.1334C16.3033 37.9596 15.7086 37.6314 15.2311 37.177C14.7535 36.7226 14.4098 36.1601 14.2334 35.5435C13.7996 33.2084 13.5898 30.8411 13.6052 28.4713C13.5902 26.0993 13.8005 23.7312 14.2334 21.3991C14.4136 20.7799 14.7586 20.2148 15.2349 19.7565C15.7197 19.2935 16.3113 18.9574 16.9573 18.7782C20.9702 18.3293 25.0069 18.1272 29.0446 18.1732C29.0446 18.1732 38.73 18.1732 41.1474 18.8104C41.7934 18.9773 42.3862 19.306 42.8698 19.7655ZM25.9655 24.065V32.8788L34.0237 28.4725L25.9655 24.065Z" fill="#F3F3F3"/>
</svg>
