<svg width="465" height="94" viewBox="0 0 465 94" fill="none" xmlns="http://www.w3.org/2000/svg">
<rect x="316.645" y="4.24264" width="72.0964" height="47.2346" transform="rotate(45 316.645 4.24264)" stroke="#F3F3F3" stroke-width="6"/>
<rect x="249.203" y="24" width="16.1719" height="69" fill="#F3F3F3"/>
<rect x="406.766" y="24" width="16.1719" height="69" fill="#F3F3F3"/>
<rect y="24" width="5.39062" height="69" fill="#F3F3F3"/>
<rect x="272.922" y="24" width="5.39062" height="69" fill="#F3F3F3"/>
<rect x="65.4219" y="24" width="3.23438" height="69" fill="#F3F3F3"/>
<rect x="81.5938" y="24" width="3.23438" height="69" fill="#F3F3F3"/>
<rect x="373.203" y="24" width="3.23438" height="69" fill="#F3F3F3"/>
<rect x="384.125" y="24" width="3.23438" height="69" fill="#F3F3F3"/>
<rect x="391.672" y="24" width="3.23438" height="69" fill="#F3F3F3"/>
<rect x="400.297" y="24" width="3.23438" height="69" fill="#F3F3F3"/>
<rect x="11.8594" y="24" width="11.8594" height="69" fill="#F3F3F3"/>
<rect x="32" y="24" width="11.8594" height="69" fill="#F3F3F3"/>
<rect x="88.0625" y="24" width="11.8594" height="69" fill="#F3F3F3"/>
<rect x="112.859" y="24" width="38.8125" height="69" fill="#F3F3F3"/>
<rect x="426.172" y="24" width="38.8125" height="69" fill="#F3F3F3"/>
<path d="M168.953 58.8331C168.953 51.4223 170.756 44.345 173.859 39.3921C177.538 33.7105 182.615 30.9438 189.581 30.9438L190.206 30.9438C196.24 30.9438 202.47 30.9438 210.907 48.0628C217.493 61.3034 221.184 64.2924 227.5 67.5408C228.639 68.1177 229.748 68.7525 230.823 69.4429C238.034 74.0623 238.034 78.3729 238.034 79.7933L238.034 86.636L168.953 86.636L168.953 58.8331ZM162 58.8331L162 93.6392L245 93.6392L245 79.7933C245 73.4818 241.493 67.9731 234.564 63.5266C227.635 59.0802 225.072 60.9576 217.198 44.9996C206.541 23.3231 196.608 24.0024 189.642 24.0024C168.966 24.0024 162 43.4804 162 58.8949" fill="#EE4941"/>
<rect width="6" height="37" transform="matrix(4.37114e-08 -1 -1 -4.37114e-08 322 93)" fill="#EE4941"/>
<path d="M330.858 40.7291C330.935 40.6514 330.979 40.5461 330.979 40.4362C330.979 40.3264 330.935 40.221 330.858 40.1433C330.78 40.0657 330.675 40.022 330.565 40.022C330.455 40.022 330.35 40.0657 330.272 40.1433L325.293 45.1224L319.728 39.5576C319.65 39.4799 319.545 39.4362 319.435 39.4362C319.325 39.4362 319.22 39.4799 319.142 39.5576C319.064 39.6352 319.021 39.7406 319.021 39.8504C319.021 39.9603 319.064 40.0657 319.142 40.1433L324.707 45.7082L319.16 51.2549C319.083 51.3326 319.039 51.438 319.039 51.5478C319.039 51.6577 319.083 51.763 319.16 51.8407C319.238 51.9184 319.343 51.962 319.453 51.962C319.563 51.962 319.668 51.9184 319.746 51.8407L325.293 46.294L330.84 51.8407C330.917 51.9184 331.023 51.962 331.132 51.962C331.242 51.962 331.348 51.9184 331.425 51.8407C331.503 51.763 331.547 51.6577 331.547 51.5478C331.547 51.438 331.503 51.3326 331.425 51.2549L325.879 45.7082L330.858 40.7291Z" fill="#EE4941"/>
<path d="M334.411 54.2386L332.881 52.708C336.326 48.6907 336.326 42.7264 332.881 38.7091L334.375 37.2148C334.453 37.1371 334.496 37.0318 334.496 36.9219C334.496 36.812 334.453 36.7067 334.375 36.629C334.297 36.5513 334.192 36.5077 334.082 36.5077C333.972 36.5077 333.867 36.5513 333.789 36.629L332.325 38.0935C328.324 34.0926 321.937 33.9133 317.71 37.5375L316.252 36.0795C316.175 36.0019 316.069 35.9582 315.959 35.9582C315.85 35.9582 315.744 36.0019 315.667 36.0795C315.589 36.1572 315.545 36.2626 315.545 36.3724C315.545 36.4823 315.589 36.5876 315.667 36.6653L317.095 38.0935C312.896 42.2923 312.896 49.1248 317.095 53.3237L315.63 54.7881C315.553 54.8658 315.509 54.9711 315.509 55.081C315.509 55.1908 315.553 55.2962 315.63 55.3739C315.708 55.4516 315.813 55.4952 315.923 55.4952C316.033 55.4952 316.138 55.4516 316.216 55.3739L317.71 53.8796C321.937 57.5038 328.324 57.3245 332.325 53.3237L333.826 54.8244C333.903 54.9021 334.009 54.9457 334.119 54.9457C334.228 54.9457 334.334 54.9021 334.411 54.8244C334.489 54.7467 334.533 54.6414 334.533 54.5315C334.533 54.4217 334.489 54.3163 334.411 54.2386ZM317.68 52.7379C313.804 48.8618 313.804 42.5553 317.68 38.6792C321.557 34.8031 327.863 34.8031 331.739 38.6792C335.615 42.5553 335.615 48.8618 331.739 52.7379C327.863 56.614 321.557 56.614 317.68 52.7379Z" fill="#EE4941"/>
</svg>
