<svg width="361" height="73" viewBox="0 0 361 73" fill="none" xmlns="http://www.w3.org/2000/svg">
<rect x="245.195" y="3.28533" width="55.8285" height="36.5766" transform="rotate(45 245.195 3.28533)" stroke="#F3F3F3" stroke-width="4.64615"/>
<rect x="192.973" y="18.5847" width="12.5228" height="53.4308" fill="#F3F3F3"/>
<rect x="314.984" y="18.5847" width="12.5228" height="53.4308" fill="#F3F3F3"/>
<rect y="18.5847" width="4.17428" height="53.4308" fill="#F3F3F3"/>
<rect x="211.34" y="18.5847" width="4.17428" height="53.4308" fill="#F3F3F3"/>
<rect x="50.6602" y="18.5847" width="2.50457" height="53.4308" fill="#F3F3F3"/>
<rect x="63.1836" y="18.5847" width="2.50457" height="53.4308" fill="#F3F3F3"/>
<rect x="288.992" y="18.5847" width="2.50457" height="53.4308" fill="#F3F3F3"/>
<rect x="297.449" y="18.5847" width="2.50457" height="53.4308" fill="#F3F3F3"/>
<rect x="303.293" y="18.5847" width="2.50457" height="53.4308" fill="#F3F3F3"/>
<rect x="309.973" y="18.5847" width="2.50457" height="53.4308" fill="#F3F3F3"/>
<rect x="9.18359" y="18.5847" width="9.18341" height="53.4308" fill="#F3F3F3"/>
<rect x="24.7812" y="18.5847" width="9.18341" height="53.4308" fill="#F3F3F3"/>
<rect x="68.1914" y="18.5847" width="9.18341" height="53.4308" fill="#F3F3F3"/>
<rect x="87.3945" y="18.5847" width="30.0548" height="53.4308" fill="#F3F3F3"/>
<rect x="330.012" y="18.5847" width="30.0548" height="53.4308" fill="#F3F3F3"/>
<path d="M130.83 45.5579C130.83 39.8193 132.226 34.3389 134.628 30.5036C137.477 26.104 141.409 23.9616 146.803 23.9616L147.287 23.9616C151.959 23.9616 156.784 23.9616 163.317 37.2178C168.417 47.4708 171.275 49.7853 176.166 52.3008C177.048 52.7475 177.907 53.2391 178.739 53.7737C184.323 57.3507 184.323 60.6887 184.323 61.7886L184.323 67.0873L130.83 67.0873L130.83 45.5579ZM125.445 45.5579L125.445 72.5103L189.717 72.5103L189.717 61.7886C189.717 56.9012 187.001 52.6355 181.636 49.1923C176.27 45.7492 174.285 47.203 168.189 34.8458C159.936 18.0604 152.244 18.5864 146.85 18.5864C130.839 18.5864 125.445 33.6694 125.445 45.6057" fill="#E22020"/>
<rect width="4.64615" height="28.6513" transform="matrix(4.37114e-08 -1 -1 -4.37114e-08 249.344 72.0154)" fill="#E22020"/>
<path d="M256.2 31.5389C256.26 31.4788 256.294 31.3972 256.294 31.3121C256.294 31.2271 256.26 31.1455 256.2 31.0853C256.14 31.0252 256.059 30.9914 255.974 30.9914C255.888 30.9914 255.807 31.0252 255.747 31.0853L251.891 34.9409L247.582 30.6317C247.522 30.5716 247.44 30.5378 247.355 30.5378C247.27 30.5378 247.188 30.5716 247.128 30.6317C247.068 30.6919 247.034 30.7735 247.034 30.8585C247.034 30.9436 247.068 31.0252 247.128 31.0853L251.438 35.3945L247.142 39.6897C247.082 39.7499 247.048 39.8314 247.048 39.9165C247.048 40.0016 247.082 40.0832 247.142 40.1433C247.202 40.2035 247.284 40.2372 247.369 40.2372C247.454 40.2372 247.536 40.2035 247.596 40.1433L251.891 35.8481L256.186 40.1433C256.246 40.2035 256.328 40.2373 256.413 40.2373C256.498 40.2373 256.58 40.2035 256.64 40.1433C256.7 40.0832 256.734 40.0016 256.734 39.9165C256.734 39.8314 256.7 39.7499 256.64 39.6897L252.345 35.3945L256.2 31.5389Z" fill="#E22020"/>
<path d="M258.953 42.0002L257.768 40.8149C260.436 37.7041 260.436 33.0856 257.768 29.9748L258.925 28.8176C258.985 28.7575 259.019 28.6759 259.019 28.5908C259.019 28.5058 258.985 28.4242 258.925 28.364C258.865 28.3039 258.783 28.2701 258.698 28.2701C258.613 28.2701 258.532 28.3039 258.471 28.364L257.337 29.498C254.239 26.3999 249.293 26.2611 246.021 29.0676L244.892 27.9385C244.831 27.8784 244.75 27.8446 244.665 27.8446C244.58 27.8446 244.498 27.8784 244.438 27.9385C244.378 27.9987 244.344 28.0803 244.344 28.1653C244.344 28.2504 244.378 28.332 244.438 28.3921L245.544 29.498C242.292 32.7494 242.292 38.0403 245.544 41.2917L244.41 42.4257C244.35 42.4858 244.316 42.5674 244.316 42.6525C244.316 42.7375 244.35 42.8191 244.41 42.8793C244.47 42.9394 244.552 42.9732 244.637 42.9732C244.722 42.9732 244.803 42.9394 244.863 42.8793L246.021 41.7221C249.293 44.5286 254.239 44.3898 257.337 41.2917L258.5 42.4538C258.56 42.514 258.641 42.5477 258.726 42.5477C258.811 42.5477 258.893 42.514 258.953 42.4538C259.013 42.3937 259.047 42.3121 259.047 42.227C259.047 42.1419 259.013 42.0604 258.953 42.0002ZM245.997 40.8381C242.996 37.8366 242.996 32.9531 245.997 29.9516C248.999 26.9501 253.882 26.9501 256.884 29.9516C259.885 32.9531 259.885 37.8366 256.884 40.8381C253.882 43.8396 248.999 43.8396 245.997 40.8381Z" fill="#E22020"/>
</svg>
