<svg width="65" height="59" viewBox="0 0 65 59" fill="none" xmlns="http://www.w3.org/2000/svg">
<path d="M16.8828 58.9971C16.6003 58.9992 16.327 58.8983 16.1147 58.7138C15.9025 58.5293 15.7662 58.2739 15.7319 57.9963L15.4053 55.5715C15.3816 55.409 15.3944 55.2434 15.4428 55.0864C15.4912 54.9293 15.574 54.7848 15.6852 54.6631C15.796 54.54 15.931 54.4405 16.0818 54.3706H11.7736C11.5345 54.3703 11.3012 54.2978 11.1049 54.1627C10.9118 54.2986 10.6807 54.3713 10.4439 54.3706H6.05791C5.90574 54.3706 5.75507 54.3409 5.61449 54.2833C5.47391 54.2256 5.34618 54.1412 5.23858 54.0346C5.13099 53.9281 5.04564 53.8017 4.98741 53.6625C4.92918 53.5234 4.89921 53.3742 4.89921 53.2236V51.3453H1.16648C0.857108 51.3453 0.56041 51.2236 0.341653 51.0071C0.122896 50.7905 0 50.4968 0 50.1906L0 27.2044C0 21.1384 1.78082 15.2726 4.89921 11.0387V1.16216C4.8992 0.857242 5.02103 0.564701 5.23811 0.348373C5.45518 0.132045 5.74989 0.00949324 6.05791 0.00746047H10.4439C10.6467 0.00789078 10.8459 0.0606574 11.0218 0.160554C11.1977 0.260451 11.3443 0.404025 11.447 0.577111C12.0452 0.209926 12.734 0.0128426 13.4378 0.00746047H13.5311C14.163 -0.0307411 14.7926 0.112358 15.3444 0.419586C15.8961 0.726814 16.3466 1.18512 16.6417 1.73951C17.4583 0.777258 18.8736 0.00746047 21.1988 0.00746047H21.9064C24.3016 0.00746047 25.9658 0.777258 26.8756 2.20138C27.8244 0.777258 29.4886 0.00746047 31.7515 0.00746047H37.0784C37.3865 0.00949324 37.6812 0.132045 37.8982 0.348373C38.1153 0.564701 38.2371 0.857242 38.2371 1.16216V1.23144C39.3853 0.370137 40.8032 -0.0632225 42.242 0.00746047H47.569C47.6853 0.00595044 47.801 0.0241759 47.9111 0.0613463C48.0221 0.0278706 48.1373 0.00973718 48.2533 0.00746047H52.9814C53.2908 0.00746047 53.5875 0.129116 53.8062 0.345663C54.025 0.562211 54.1479 0.855913 54.1479 1.16216V10.5383H54.3268C59.1015 10.5383 59.817 13.6175 59.817 15.4111V22.6934C59.817 25.0028 58.7671 26.5424 56.8619 27.2583C58.666 28.0281 59.6459 29.4753 59.7936 31.6923C63.0598 34.3943 64.7162 37.5351 64.7162 41.0454C64.7162 45.2254 64.6617 50.206 64.6617 50.206C64.6577 50.5096 64.533 50.7993 64.3146 51.0125C64.0963 51.2258 63.802 51.3453 63.4953 51.3453H59.3426C58.6894 52.8849 57.1419 54.3706 53.6113 54.3706H52.8803C51.7061 54.3706 48.3311 54.3706 47.149 51.3453H46.2936V53.2236C46.2937 53.3768 46.2627 53.5286 46.2025 53.6698C46.1424 53.811 46.0542 53.9388 45.9433 54.0457C45.8324 54.1527 45.701 54.2365 45.5568 54.2923C45.4126 54.3481 45.2586 54.3747 45.1038 54.3706H40.1113C39.804 54.3706 39.5092 54.2497 39.2919 54.0346C39.0747 53.8195 38.9526 53.5278 38.9526 53.2236V51.3453H38.2371C37.5528 53.2621 35.5853 54.3706 32.7547 54.3706H31.6971C28.1199 54.3706 26.6501 52.8926 26.098 51.3453H25.5148L24.986 56.0411C24.9051 56.8746 24.5044 57.6458 23.8664 58.1957C23.2284 58.7456 22.4017 59.0324 21.5565 58.9971H16.8828Z" fill="#171717"/>
<path d="M21.5339 43.424L20.8262 27.8741H11.6655L10.4368 37.3965V27.8741V25.0258C10.7336 25.5153 11.1621 25.9135 11.6743 26.1759C12.1865 26.4382 12.7623 26.5544 13.3374 26.5116H13.3841C14.9394 26.5116 16.0048 25.2799 16.0048 23.5401V4.29519C16.0048 2.36299 15.2271 1.216 13.5241 1.216H13.4307C12.2876 1.216 11.2144 1.98579 10.4368 3.38683V1.16211H6.05859V53.2235H10.4446V43.1161L11.7743 53.2235H16.2458L14.2939 40.2371L15.9348 28.0435L18.9754 53.2697C19.0532 53.8779 19.0998 54.0857 19.1154 54.3706C19.1309 54.6554 19.2242 55.4329 18.711 55.4329H16.5569L16.8835 57.8577H21.5494C21.8267 57.8787 22.1055 57.8454 22.3698 57.7596C22.6341 57.6738 22.8787 57.5373 23.0896 57.3578C23.3005 57.1784 23.4736 56.9595 23.599 56.7137C23.7243 56.4679 23.7995 56.2001 23.8202 55.9255L26.9308 27.8818H22.0938L21.6738 43.4317L21.5339 43.424ZM10.5845 4.78786C10.5845 4.45685 10.6312 4.17972 11.0122 4.17972C11.3933 4.17972 11.4399 4.45685 11.4399 4.78786V22.9243C11.4399 23.2091 11.3933 23.5401 11.0122 23.5401C10.6312 23.5401 10.5845 23.2091 10.5845 22.9243V4.78786Z" fill="#F3F3F3"/>
<path d="M54.3274 11.6852H52.982V1.16211H48.2539V26.5116H54.3274C57.1114 26.5116 58.6511 25.2337 58.6511 22.6626V15.4034C58.6511 13.094 57.4069 11.6775 54.3274 11.6775V11.6852ZM53.9308 22.0698C53.9308 22.8396 53.6275 22.9705 53.2309 22.9705H52.982V15.2186H53.2775C53.6819 15.2186 53.9308 15.3187 53.9308 16.1193V22.0698Z" fill="#F3F3F3"/>
<path d="M53.6608 27.874H52.8832C49.7726 27.874 47.8984 29.098 47.8984 32.3004V48.7894C47.8984 51.9918 49.4537 53.2235 52.8832 53.2235H53.6064C56.717 53.2235 58.6456 51.9918 58.6456 48.7894V32.3388C58.6456 29.1827 57.0047 27.9125 53.6608 27.9125V27.874ZM53.9097 49.4668C53.9097 49.8902 53.8086 50.1289 53.3964 50.1289C52.9843 50.1289 52.9298 49.8902 52.9298 49.4668V31.5691C52.9298 31.238 52.9843 30.9147 53.3964 30.9147C53.8086 30.9147 53.9097 31.238 53.9097 31.5691V49.4668Z" fill="#F3F3F3"/>
<path d="M21.1974 26.5039H21.8584C24.7668 26.5039 26.5243 25.2799 26.5243 22.0775V5.58845C26.5243 2.43228 24.969 1.16211 21.905 1.16211H21.1974C18.289 1.16211 16.5781 2.38609 16.5781 5.58845V22.0775C16.5781 25.2799 18.0557 26.5039 21.1974 26.5039V26.5039ZM21.0963 4.83405C21.0963 4.50303 21.1429 4.17972 21.524 4.17972C21.905 4.17972 22.0061 4.50303 22.0061 4.83405V22.7395C22.0061 23.1629 21.905 23.4016 21.524 23.4016C21.1429 23.4016 21.0963 23.1629 21.0963 22.7395V4.83405Z" fill="#F3F3F3"/>
<path d="M38.0039 31.5921H40.1113V53.2235H45.135V31.5921H47.2424V27.874H38.0039V31.5921Z" fill="#F3F3F3"/>
<path d="M32.9177 27.874H31.6968C28.2129 27.874 26.9453 29.4136 26.9453 31.723V49.4515C26.9453 52.2766 28.9517 53.2235 31.6968 53.2235H32.7544C35.5539 53.2235 37.3503 52.038 37.3503 49.7825V42.8543H32.5755V49.667C32.5755 50.0365 32.4666 50.1828 32.1478 50.1828C31.829 50.1828 31.7279 50.0365 31.7279 49.667V31.2611C31.7279 30.8916 31.8834 30.7454 32.1478 30.7454C32.4122 30.7454 32.5755 30.8916 32.5755 31.2611V40.1908H37.327V31.2611C37.327 29.1442 36.0594 27.874 32.8943 27.874" fill="#F3F3F3"/>
<path d="M31.3704 26.4885H26.9922V26.4423C27.1427 26.0675 27.2192 25.6677 27.2177 25.2645V18.4826C27.2177 16.8814 27.591 16.1732 28.3064 15.6574C27.9185 15.269 27.6165 14.8049 27.4196 14.2947C27.2228 13.7844 27.1355 13.2392 27.1633 12.6937V5.58845C27.1633 2.50926 28.9285 1.16211 31.7825 1.16211H37.1094V26.4885H32.5602V17.8975H32.2258C31.7981 17.8975 31.7048 18.1285 31.7048 18.6673V25.1875C31.7048 26.0343 31.557 26.3191 31.3704 26.4577V26.4885ZM32.5602 4.83405H32.2724C31.8447 4.83405 31.6581 4.97261 31.6581 5.72701V13.0478C31.6581 13.5636 31.8914 13.756 32.2724 13.756H32.5602V4.83405Z" fill="#F3F3F3"/>
<path d="M41.8626 26.4885H37.4844V26.4423C37.6207 26.0647 37.684 25.6652 37.671 25.2645L37.6244 5.58845C37.6244 2.50926 39.3896 1.16211 42.2436 1.16211H47.5705V26.4885H43.0524V4.83405H42.718C42.2903 4.83405 42.1969 5.06499 42.1969 5.60384V25.2183C42.1969 26.0651 42.0492 26.3499 41.8626 26.4885Z" fill="#F3F3F3"/>
<path d="M22.8761 9.05267C26.9354 9.05267 31.9746 9.05267 38.328 20.4072C43.5228 29.6448 46.4156 31.3537 50.716 33.3013C51.5559 33.6862 52.3491 34.0711 53.259 34.5561C56.805 36.5575 58.6014 38.7361 58.6014 41.0455C58.6014 42.4388 58.6014 43.9322 58.6014 45.3025H6.10215V27.2045C6.10215 24.1792 6.8798 9.05267 21.9351 9.05267H22.8761ZM22.8761 4.16445H21.9351C6.39766 4.16445 1.16406 17.0201 1.16406 27.2045V50.1907H63.4929C63.4929 50.1907 63.5473 45.2178 63.5473 41.0455C63.5473 36.8732 60.911 33.2397 55.7008 30.2683C50.4905 27.2969 48.5697 28.567 42.6518 17.9977C35.1086 4.51856 28.0475 4.14136 22.8761 4.14136" fill="#E22020"/>
</svg>
